# xmcd CD database file
# Copyright (C) 1993-1998 Ti Kan
# 
# Track frame offsets:
#     150
#     16190
#     30388
#     41705
#     57828
#     74680
#     84638
#     101478
#     117950
#     137053
#     145288
#     156545
#     173220
#     186238
#     198158
#     211935
#     222748
#     235308
#     247055
#     256838
#     266218
#     278510
# 
# Disc length: 3892 seconds
# 
# Revision: 1
# Processed by: cddbd v1.4b41PL1 Copyright (c) Steve Scherf et al.
# Submitted via: DiscPlay 4.0.4
# 
DISCID=500f3216
DTITLE=Memphis Slim - 4.00 Blues
DYEAR=1900
DGENRE=
TTITLE0=4.00 Blues
TTITLE1=Trouble in Mind
TTITLE2=Worried Life Blues
TTITLE3=Cow Cow Blues
TTITLE4=Lonesome in my Bedroom
TTITLE5=Diggin' My Potatoes
TTITLE6=In the Evening when the Sun Goes Down
TTITLE7=Blue and Disgusted
TTITLE8=Miss Ida Bea
TTITLE9=I'll Take Her to Chicago
TTITLE10=Lonesome
TTITLE11=Cold Blooded Woman
TTITLE12=One Man's Mind
TTITLE13=Let the Good Times Roll Creole
TTITLE14=What is the Mare Rack?
TTITLE15=Pigalle Love
TTITLE16=Four Walls
TTITLE17=It's Been Too Long
TTITLE18=Big Bertha
TTITLE19=I'm Lost Without You
TTITLE20=I'll Just Keep on Singin' the Blues
TTITLE21=True Love
EXTD=
EXTT0=
EXTT1=
EXTT2=
EXTT3=
EXTT4=
EXTT5=
EXTT6=
EXTT7=
EXTT8=
EXTT9=
EXTT10=
EXTT11=
EXTT12=
EXTT13=
EXTT14=
EXTT15=
EXTT16=
EXTT17=
EXTT18=
EXTT19=
EXTT20=
EXTT21=
PLAYORDER=
